<?xml version="1.0" encoding="utf-8"?>
<!-- Generator: Adobe Illustrator 19.2.0, SVG Export Plug-In . SVG Version: 6.00 Build 0)  -->
<!DOCTYPE svg PUBLIC "-//W3C//DTD SVG 1.1//EN" "http://www.w3.org/Graphics/SVG/1.1/DTD/svg11.dtd">
<svg version="1.1" id="Layer_1" xmlns="http://www.w3.org/2000/svg" xmlns:xlink="http://www.w3.org/1999/xlink" x="0px" y="0px"
	 viewBox="0 0 112 40" enable-background="new 0 0 112 40" xml:space="preserve">
<rect x="-294" y="-105" display="none" width="700" height="250"/>
<g>
	<path fill="#F5A300" d="M93,22.4h-2.4c-1.7,0-1,1.6-4.3,1.6c-4,0-3.7-4.4-3.7-4.4h10.8c0-4.3-1.8-7.7-7.2-7.7
		c-4.3,0-7.1,2.3-7.1,7.1c0,4.2,2.2,7.2,7.1,7.2C91.5,26.3,92.8,22.9,93,22.4 M82.6,17.5c0,0-0.1-3.2,3.7-3.2c3.7,0,3.7,3.2,3.7,3.2
		H82.6z"/>
	<path fill="#24BAC5" d="M53.6,12c-4.4,0-7.1,2.3-7.1,7.1c0,4.9,2.7,7.1,7.1,7.1c4.4,0,7.1-2.3,7.1-7.1C60.7,14.2,58,12,53.6,12z
		 M53.6,24.1c-3.1,0-3.9-2.7-3.9-5c0-2.3,0.8-5,3.9-5c3.1,0,3.9,2.7,3.9,5C57.4,21.4,56.6,24.1,53.6,24.1z"/>
	<path fill="#8CC63E" d="M75.2,13.8c-1.1-1.2-3-1.9-5.3-1.9v0c-2.3,0-4.1,0.7-5.3,1.9c-1,1-1.4,2-1.4,4.2v8.3h3.4v-8.7
		c0-2.1,1.7-3.1,3.2-3.1c1.5,0,3.2,0.9,3.2,3.1v8.7h3.4V18C76.6,15.9,76.1,14.8,75.2,13.8z"/>
</g>
<g id="color_icon">
	<path fill-rule="evenodd" clip-rule="evenodd" fill="#FFDD67" d="M28,8c5.2,0,9.4,4.2,9.4,9.4c0,5.2-4.2,9.4-9.4,9.4
		c-5.2,0-9.4-4.2-9.4-9.4C18.6,12.2,22.8,8,28,8"/>
	<g>
		<path fill-rule="evenodd" clip-rule="evenodd" d="M29.3,14.2c-0.7,0.4-1.9,0.4-2.6,0c-0.8-0.4-1.8-0.7-2.9-0.8
			c-1.1-0.1-3.5-0.1-4.7,0.3c-0.1,0-0.3,0.1-0.4,0.2c-0.1,0-0.1,0.1-0.1,0.2v0.2c0,0.3,0,0.2,0.2,0.3c0.5,0.3,0.7,1,0.9,2
			c0.2,1.4,0.9,2.3,2,2.7c1.1,0.4,2.2,0.4,3.3,0c0.6-0.2,1.1-0.6,1.5-1.2c0.7-1,0.5-1.7,0.8-2.5c0.3-0.8,1.2-0.8,1.5,0
			c0.4,0.9,0.2,1.5,0.8,2.5c0.4,0.6,0.9,0.9,1.5,1.2c1,0.4,2.2,0.4,3.3,0c1.1-0.4,1.8-1.3,2-2.7c0.1-1,0.4-1.7,0.9-2
			c0.2-0.1,0.2,0,0.2-0.3v-0.2c0-0.1,0-0.2-0.1-0.2c-0.1-0.1-0.3-0.1-0.4-0.2c-1.2-0.4-3.6-0.4-4.7-0.3
			C31.1,13.5,30.1,13.8,29.3,14.2"/>
	</g>
	<g>
		<path fill-rule="evenodd" clip-rule="evenodd" fill="#FFFFFF" d="M28.8,28.8l0.9-0.5l2.1-1.2v2.4V32l-2.1-1.2l-0.9-0.5
			c-0.1,0.2-0.3,0.3-0.5,0.3h-0.6c-0.2,0-0.4-0.1-0.5-0.3l-0.9,0.5L24.2,32v-2.4v-2.4l2.1,1.2l0.9,0.5c0.1-0.2,0.3-0.3,0.5-0.3h0.6
			C28.5,28.5,28.7,28.7,28.8,28.8"/>
		<g opacity="0.15">
			<path d="M29.1,29.2c-0.3,0.2-0.3,0.6,0,0.8c0.5,0.3,1.1,0.6,1.7,0.9c-0.5-0.4-1-0.8-1.4-1.2c0.5-0.2,1.1-0.2,1.5-0.2
				c-0.4-0.1-1-0.1-1.5-0.1c0.4-0.5,0.9-0.9,1.4-1.1C30.4,28.4,29.7,28.7,29.1,29.2"/>
			<path d="M26.5,29.4c-0.4,0-1.1,0-1.5,0.1c0.4,0,1,0,1.5,0.2c-0.4,0.4-0.9,0.9-1.4,1.2c0.6-0.3,1.2-0.6,1.7-0.9
				c0.3-0.2,0.2-0.6,0-0.8c-0.6-0.4-1.3-0.8-1.8-0.9C25.6,28.5,26.1,28.9,26.5,29.4"/>
		</g>
	</g>
	<g>
		<path d="M24.7,21c0.4,0.6,0.9,1,1.4,1.2c0.6,0.3,1.2,0.4,1.9,0.4c0.7,0,1.3-0.1,1.9-0.4c0.6-0.3,1.1-0.7,1.4-1.2
			c0.1,0.7-0.3,1.4-0.9,1.9c-0.6,0.5-1.5,0.8-2.4,0.8c-0.9,0-1.8-0.3-2.4-0.8C25,22.4,24.6,21.7,24.7,21z"/>
	</g>
</g>
</svg>
