<svg viewBox="0 0 849 121" xmlns="http://www.w3.org/2000/svg"><g fill="none" fill-rule="evenodd"><g transform="translate(483)"><path d="m361.7485 88.3286h-19.96613c-13.8348 0-8.48953 13.40269-35.0586 13.40269-32.386 0-29.87059-36.97852-29.87059-36.97852h88.5113c0-35.68669-14.46365-64.2683-58.4835-64.2683-35.3731 0-58.169 19.37739-58.169 59.2625 0 35.2023 17.76514 60.5543 58.169 60.5543 42.7621 0 53.2954-28.0972 54.86755-31.97269m-84.7381-41.82287c0 0-.62885-26.96687 29.87059-26.96687 30.49944 0 29.87059 26.96687 29.87059 26.96687h-59.74117" fill="#f5a300"/><path d="m59.1123.48443c-36.0019 0-58.3262 18.89295-58.3262 59.90843 0 41.0155 22.32433 59.90843 58.3262 59.90843 36.0019 0 58.3262-18.89296 58.3262-59.90843 0-40.854-22.32433-59.90843-58.3262-59.90843m0 101.5698c-24.99696 0-31.44272-22.44548-31.44272-41.49991 0-19.0544 6.60297-41.49991 31.44272-41.49991 24.99696 0 31.59994 22.44548 31.59994 41.49991 0 18.89295-6.60297 41.49991-31.59994 41.49991" fill="#24bac5"/><path d="m226.0732 16.3093c-9.43282-10.0117-24.0537-15.66339-42.91932-15.66339-18.86563 0-33.64371 5.65174-42.91932 15.66339-7.70347 8.23539-11.16217 17.1167-11.16217 34.71782v69.2742h27.82681v-72.82669c0-17.76261 13.67758-25.83652 26.2547-25.83652 12.57709 0 26.2547 7.91243 26.2547 25.83652v72.98817h27.82681v-69.4356c-.15721-17.60113-3.4587-26.48243-11.16217-34.71782" fill="#8cc63e"/></g><path d="m.728 118h77.056v-15.136h-59.856v-35.776h58.652v-15.136h-58.652v-33.54h59.856v-15.136h-77.056v114.724m197.284 0h17.2v-114.724h-24.596l-33.368 82.388-33.368-82.388h-24.596v114.724h17.2v-91.16l37.152 91.16h7.224l37.152-91.16v91.16m37.84-57.276c0 34.056 23.564 59.34 57.792 59.34 34.228 0 57.792-25.284 57.792-59.34 0-34.056-23.564-59.34-57.792-59.34-34.228 0-57.792 25.284-57.792 59.34m97.868 0c0 25.112-15.824 44.032-40.076 44.032-24.596 0-40.076-18.92-40.076-44.032 0-25.284 15.48-44.032 40.076-44.032 24.252 0 40.076 18.748 40.076 44.032m24.08 46.784c7.912 8.944 18.06 12.556 30.1 12.556 21.328 0 37.496-12.04 37.496-37.496v-79.292h-17.2v79.12c0 13.416-8.256 22.36-21.5 22.36-9.46 0-15.824-4.816-20.64-10.32l-8.256 13.072m93.224 10.492h17.2v-114.724h-17.2v114.724" fill="#fff" opacity=".9"/></g></svg>