<?xml version="1.0" encoding="utf-8"?>
<!-- Generator: Adobe Illustrator 15.0.0, SVG Export Plug-In . SVG Version: 6.00 Build 0)  -->
<!DOCTYPE svg PUBLIC "-//W3C//DTD SVG 1.1//EN" "http://www.w3.org/Graphics/SVG/1.1/DTD/svg11.dtd">
<svg version="1.1" id="Layer_1" xmlns="http://www.w3.org/2000/svg" xmlns:xlink="http://www.w3.org/1999/xlink" x="0px" y="0px"
	 width="24px" height="24px" viewBox="0 0 24 24" enable-background="new 0 0 24 24" xml:space="preserve">
<g>
	<g>
		<path fill-rule="evenodd" clip-rule="evenodd" fill="#FFFFFF" d="M11.839,1.686c0.462,1.009-0.218,4.444-0.218,4.444
			S8.533,4.321,8.07,3.312c-0.463-1.009,0.005-2.19,1.045-2.639C10.157,0.225,11.377,0.678,11.839,1.686z"/>
		<path fill="#3E4347" d="M11.621,6.63c-0.087,0-0.175-0.023-0.253-0.068c-0.538-0.315-3.25-1.944-3.753-3.041
			C7.338,2.917,7.316,2.243,7.554,1.624c0.243-0.635,0.728-1.135,1.363-1.41c1.264-0.542,2.819,0.048,3.376,1.264
			c0.504,1.101-0.063,4.149-0.182,4.75c-0.031,0.159-0.138,0.292-0.285,0.359C11.761,6.615,11.691,6.63,11.621,6.63z M9.953,1
			c-0.221,0-0.437,0.044-0.64,0.132c-0.386,0.167-0.679,0.468-0.825,0.85C8.347,2.348,8.36,2.746,8.524,3.104
			c0.23,0.502,1.58,1.491,2.733,2.219c0.211-1.312,0.355-2.929,0.127-3.428C11.135,1.351,10.573,1,9.953,1z"/>
	</g>
	<g>
		<g>
			<path fill="#3E4347" d="M12,7.715c-0.276,0-0.5-0.224-0.5-0.5c0-1.947,1.145-5.242,5.437-5.242c0.276,0,0.5,0.224,0.5,0.5
				s-0.224,0.5-0.5,0.5c-4.312,0-4.437,3.808-4.437,4.242C12.5,7.492,12.276,7.715,12,7.715z"/>
		</g>
	</g>
	<g>
		<g>
			<path fill-rule="evenodd" clip-rule="evenodd" fill="#FFFFFF" d="M12,7.024C9.019,3.98,0.5,4.257,0.5,12.947
				c0,5.14,7.905,13.383,11.5,9.583c3.595,3.8,11.5-4.443,11.5-9.583C23.5,4.257,14.98,3.98,12,7.024z"/>
		</g>
		<g>
			<path fill="#3E4347" d="M14.255,24L14.255,24c-0.861,0-1.617-0.265-2.255-0.787C11.362,23.735,10.606,24,9.745,24
				C5.647,24,0,17.596,0,12.947c0-6.039,3.929-8.182,7.293-8.182c1.808,0,3.528,0.583,4.707,1.578
				c1.179-0.995,2.898-1.578,4.706-1.578c3.365,0,7.294,2.143,7.294,8.182c0,2.092-1.258,4.847-3.282,7.189
				C18.626,22.556,16.21,24,14.255,24z M12,22.03c0.137,0,0.269,0.057,0.363,0.156C12.874,22.727,13.51,23,14.255,23l0,0
				c1.644,0,3.83-1.348,5.706-3.518C21.836,17.313,23,14.81,23,12.947c0-8.273-7.944-8.331-10.643-5.573
				c-0.188,0.192-0.526,0.192-0.715,0C8.942,4.618,1,4.674,1,12.947C1,16.987,6.231,23,9.745,23c0.745,0,1.381-0.273,1.892-0.813
				C11.731,22.087,11.863,22.03,12,22.03z"/>
		</g>
	</g>
	<g>
		<path fill="#3E4347" d="M2.557,13.298c-0.276,0-0.5-0.224-0.5-0.5c0-1.99,0.595-3.616,1.721-4.703
			c1.023-0.989,2.442-1.509,3.998-1.449c0.276,0.009,0.492,0.241,0.482,0.517C8.248,7.439,8.025,7.66,7.74,7.646
			C6.454,7.603,5.298,8.016,4.472,8.814c-0.939,0.907-1.415,2.247-1.415,3.983C3.057,13.074,2.833,13.298,2.557,13.298z"/>
	</g>
</g>
</svg>
